<?xml version="1.0" standalone="no"?> <!DOCTYPE svg PUBLIC "-//W3C//DTD SVG 20010904//EN" "http://www.w3.org/TR/2001/REC-SVG-20010904/DTD/svg10.dtd"> <svg version="1.0" xmlns="http://www.w3.org/2000/svg" width="600.000000pt" height="327.000000pt" viewBox="0 0 600.000000 327.000000" preserveAspectRatio="xMidYMid meet"> <g transform="translate(0.000000,327.000000) scale(0.100000,-0.100000)" fill="#3d6c5c" stroke="none"> <path d="M2972 2828 c-7 -7 -12 -19 -12 -27 0 -10 -83 -62 -223 -140 -122 -69 -258 -146 -303 -172 -59 -34 -88 -45 -108 -42 -29 6 -56 -11 -56 -36 0 -9 -35 -42 -77 -74 -57 -42 -85 -57 -110 -57 -26 0 -36 -6 -45 -25 -10 -21 -8 -29 10 -48 22 -23 22 -25 22 -498 0 -462 -1 -475 -20 -492 -39 -33 -10 -82 44 -74 24 3 58 -12 170 -78 78 -45 245 -141 371 -215 326 -188 319 -183 325 -211 4 -18 13 -25 39 -27 28 -3 34 1 43 26 12 30 -6 19 606 375 207 120 237 135 267 130 30 -5 36 -2 46 19 12 27 -1 68 -21 68 -6 0 -10 178 -10 480 0 412 2 481 15 486 43 17 22 84 -27 84 -46 0 -184 101 -192 142 -5 27 -9 29 -43 26 -32 -2 -59 9 -168 71 -71 40 -204 116 -295 167 -122 69 -169 101 -182 124 -18 31 -45 39 -66 18z m34 -34 c-5 -14 -4 -15 9 -4 13 11 14 10 9 -4 -7 -18 -7 -18 -28 -10 -16 6 -11 34 6 34 6 0 7 -7 4 -16z m-18 -94 c2 -40 -1 -56 -12 -62 -9 -5 -16 -15 -16 -23 0 -8 -30 -32 -67 -53 l-66 -39 -69 40 c-38 21 -68 41 -66 42 17 16 276 154 283 152 6 -2 11 -28 13 -57z m138 10 c46 -27 107 -61 134 -75 28 -14 50 -29 50 -33 -1 -7 -129 -73 -142 -72 -20 1 -128 74 -128 86 0 8 -7 17 -15 20 -11 4 -15 21 -15 58 0 82 3 83 116 16z m-116 -111 c0 -5 -4 -9 -10 -9 -5 0 -10 7 -10 16 0 8 5 12 10 9 6 -3 10 -10 10 -16z m-290 -44 c34 -19 66 -35 71 -35 5 0 9 -4 9 -10 0 -5 -3 -10 -7 -10 -5 0 -75 -39 -158 -85 l-150 -86 -40 23 c-22 12 -50 27 -63 33 -44 20 -41 22 275 204 0 1 29 -15 63 -34z m726 -26 c60 -34 129 -72 154 -85 l45 -23 -131 -1 c-112 0 -133 2 -138 16 -4 11 -14 15 -32 11 -16 -3 -46 7 -85 28 l-61 32 69 41 c37 22 69 41 69 41 1 1 50 -27 110 -60z m-366 20 c25 -15 52 -28 59 -31 9 -3 -7 -16 -40 -35 -66 -37 -123 -38 -191 -3 -27 13 -48 26 -48 29 0 14 113 66 142 66 18 0 53 -12 78 -26z m230 -144 c0 -7 7 -18 15 -25 19 -16 21 -116 2 -123 -16 -6 -281 143 -280 158 0 5 29 25 64 45 l64 36 67 -39 c38 -22 68 -45 68 -52z m-413 53 c35 -18 63 -37 63 -43 -1 -5 -62 -45 -137 -87 -99 -57 -140 -75 -152 -69 -9 6 -22 6 -32 0 -12 -6 -33 1 -74 23 l-57 31 74 42 c40 23 109 62 153 88 44 25 84 46 90 47 5 0 37 -15 72 -32z m120 -52 c-9 -23 -37 -20 -37 3 0 21 20 33 34 20 5 -4 6 -15 3 -23z m680 -26 c-11 -16 -16 -18 -24 -8 -24 31 -24 38 -1 47 30 11 45 -11 25 -39z m-1357 20 c0 -23 -22 -27 -39 -7 -13 16 -5 27 21 27 11 0 18 -7 18 -20z m1022 5 c0 -5 -5 -11 -11 -13 -6 -2 -11 4 -11 13 0 9 5 15 11 13 6 -2 11 -8 11 -13z m153 -79 c-72 -40 -136 -71 -142 -69 -8 3 -13 25 -13 59 0 81 4 83 155 84 l129 0 -129 -74z m-1087 5 c41 -21 42 -22 42 -74 0 -28 3 -62 6 -74 4 -14 2 -23 -5 -23 -6 0 -11 4 -11 9 0 5 -25 52 -55 106 -60 105 -64 116 -37 93 9 -9 36 -25 60 -37z m750 -31 c72 -41 132 -78 132 -82 0 -5 -16 -16 -35 -25 -19 -9 -35 -23 -35 -30 0 -18 9 -16 46 6 50 31 54 18 54 -174 0 -159 -1 -171 -20 -183 -11 -7 -20 -19 -20 -27 0 -25 36 -54 60 -48 21 6 44 36 34 46 -7 6 6 15 149 95 60 33 115 58 123 55 11 -4 14 -36 14 -164 0 -178 -4 -189 -61 -149 -25 19 -33 20 -40 9 -6 -10 1 -19 26 -32 19 -9 35 -23 35 -31 0 -7 -33 -31 -72 -52 -181 -99 -448 -250 -495 -281 -34 -21 -53 -40 -53 -52 0 -14 -6 -19 -21 -18 -16 1 -19 6 -14 27 4 14 3 22 -1 18 -4 -4 -20 2 -37 14 -17 12 -85 52 -151 89 l-121 67 -5 68 c-3 44 -10 69 -18 72 -11 3 -13 -9 -10 -57 1 -34 1 -61 -1 -61 -16 0 -281 157 -281 167 0 20 80 57 125 58 23 1 53 -6 70 -17 36 -22 45 -22 45 -4 0 7 -13 19 -30 26 -47 19 -70 69 -70 151 0 46 5 78 15 93 15 23 11 56 -6 56 -10 0 -13 133 -3 143 4 3 23 -5 42 -18 26 -18 39 -22 47 -14 6 8 7 13 0 15 -30 12 -75 46 -70 53 3 5 -1 16 -9 24 -9 8 -16 41 -18 85 -1 40 -2 72 0 72 15 0 112 -65 112 -75 0 -8 8 -21 17 -31 12 -11 16 -30 14 -60 -2 -35 1 -44 13 -44 12 0 16 11 16 50 0 61 11 63 89 17 l55 -33 2 -82 c2 -45 -1 -84 -7 -87 -5 -4 -23 3 -39 15 -19 13 -37 19 -48 15 -14 -5 -10 -11 21 -26 21 -11 42 -31 47 -43 5 -13 14 -27 19 -31 18 -10 14 -125 -4 -131 -8 -4 -15 -16 -15 -29 0 -12 7 -28 15 -35 17 -14 22 -165 5 -175 -5 -3 -28 6 -51 20 -22 15 -43 25 -45 22 -11 -10 10 -36 38 -48 16 -7 34 -23 39 -36 5 -13 18 -27 29 -31 11 -4 48 -54 84 -112 57 -95 66 -105 94 -106 35 -1 42 6 121 141 l53 90 149 83 c159 89 151 81 122 131 -2 2 -54 -26 -117 -63 -63 -36 -116 -66 -118 -66 -2 0 -2 118 0 263 l3 264 -31 -5 -30 -4 0 -295 0 -294 -67 -117 -68 -116 -3 173 c-2 164 -1 175 18 193 25 24 25 44 0 65 -18 16 -20 30 -20 169 0 138 2 152 20 169 11 10 20 24 20 32 0 7 16 21 35 30 19 9 35 23 35 30 0 17 -5 16 -43 -4 -63 -34 -110 -25 -231 44 -61 34 -118 66 -126 72 -10 7 26 10 117 10 85 1 134 -3 139 -10 3 -6 18 -9 32 -6 17 3 39 -4 64 -19 43 -28 48 -29 48 -11 0 7 -18 23 -40 36 -22 12 -40 29 -40 37 0 8 -11 20 -25 26 -20 9 -28 8 -44 -6 -14 -13 -47 -19 -146 -24 -146 -8 -147 -13 20 82 149 85 158 84 333 -14z m470 58 c-8 -13 -38 -66 -66 -119 -35 -65 -60 -100 -78 -108 -21 -9 -25 -17 -21 -39 4 -19 -5 -45 -28 -87 -18 -33 -47 -87 -64 -120 l-31 -60 0 173 c0 160 1 173 20 192 12 12 18 25 15 29 -2 5 49 39 115 76 66 36 122 70 125 76 4 5 11 9 17 9 6 0 4 -9 -4 -22z m-1348 -128 l0 -140 -85 66 c-53 41 -85 73 -85 84 0 12 29 39 77 74 43 31 81 56 85 56 4 0 8 -63 8 -140z m1494 85 c41 -31 76 -64 78 -73 4 -13 -19 -36 -83 -85 l-89 -68 0 140 c0 90 4 141 10 141 6 0 44 -25 84 -55z m-1454 35 c0 -6 26 -57 59 -114 38 -68 56 -109 50 -117 -5 -8 -2 -23 6 -36 20 -31 20 -146 0 -163 -9 -7 -13 -21 -9 -35 4 -15 -14 -61 -58 -149 l-63 -126 0 375 c0 206 3 375 8 375 4 0 7 -5 7 -10z m1340 -164 c0 -94 -4 -167 -10 -171 -15 -9 -107 63 -114 89 -4 17 10 52 49 124 30 56 55 106 55 112 0 5 5 10 10 10 6 0 10 -61 10 -164z m257 41 c-2 -6 -11 -11 -20 -13 -16 -2 -16 2 -8 45 1 2 8 -2 16 -9 9 -7 14 -18 12 -23z m-1837 12 c0 -5 -6 -7 -12 -3 -10 6 -9 3 0 -9 12 -14 11 -16 -7 -14 -31 2 -26 37 6 37 7 0 13 -5 13 -11z m1270 -13 c0 -6 -5 -18 -10 -26 -13 -21 -34 2 -25 28 6 22 35 20 35 -2z m-684 3 c3 -6 -3 -20 -14 -31 l-20 -20 -7 22 c-10 30 25 55 41 29z m334 -4 c0 -2 -6 -5 -13 -8 -8 -3 -14 1 -14 8 0 7 6 11 14 8 7 -3 13 -6 13 -8z m-815 -96 l95 -71 0 -223 c0 -189 -2 -224 -16 -235 -8 -8 -14 -25 -12 -40 2 -18 -25 -72 -90 -181 l-92 -154 0 481 c0 426 2 494 17 494 2 0 46 -32 98 -71z m1703 -414 c1 -273 -2 -483 -7 -488 -14 -14 -161 71 -171 99 -5 13 -14 24 -20 24 -17 0 -13 165 5 180 8 7 15 23 15 35 0 12 -7 28 -15 35 -12 10 -15 42 -15 170 0 128 3 160 15 170 8 7 15 23 15 37 0 13 -7 26 -15 29 -8 4 -15 16 -15 29 0 17 23 40 93 93 50 38 97 69 102 68 6 -2 11 -173 13 -481z m-1423 415 c-3 -5 -2 -10 3 -10 6 0 8 -10 4 -22 l-5 -22 -9 23 c-7 21 -4 41 8 41 3 0 2 -4 -1 -10z m1045 -19 c-5 -11 -15 -23 -21 -27 -6 -3 -3 5 6 20 20 30 30 35 15 7z m-623 -46 c30 -17 53 -37 53 -46 0 -9 7 -22 15 -29 12 -10 15 -42 15 -164 0 -94 -4 -156 -11 -163 -12 -12 -109 35 -109 53 0 6 -7 17 -15 24 -10 9 -15 32 -15 75 0 47 4 64 15 69 8 3 15 14 15 24 0 11 -7 25 -15 32 -11 9 -15 33 -15 87 0 41 3 73 8 71 4 -2 31 -17 59 -33z m689 -41 c32 -22 50 -42 47 -50 -4 -12 -263 -167 -263 -158 0 2 10 21 23 42 13 20 43 74 67 120 25 46 50 82 59 82 8 0 38 -16 67 -36z m-578 4 c-7 -19 -38 -22 -38 -4 0 10 9 16 21 16 12 0 19 -5 17 -12z m685 -64 c-8 -20 -33 -17 -33 4 0 10 3 22 7 25 10 11 32 -13 26 -29z m-870 -37 c3 -8 -1 -14 -8 -14 -7 0 -11 6 -8 14 3 7 6 13 8 13 2 0 5 -6 8 -13z m-340 -22 c-3 -9 -8 -14 -10 -11 -3 3 -2 9 2 15 9 16 15 13 8 -4z m-21 -127 c-2 -40 -8 -77 -13 -82 -5 -6 -9 -17 -9 -25 0 -9 -23 -29 -51 -44 -28 -16 -49 -25 -48 -20 10 21 123 243 125 243 1 0 -1 -33 -4 -72z m898 12 c0 -26 -15 -33 -30 -15 -10 12 -10 18 0 30 15 18 30 11 30 -15z m-533 -86 c-9 -9 -28 6 -21 18 4 6 10 6 17 -1 6 -6 8 -13 4 -17z m70 -46 c33 -14 53 -29 53 -39 0 -9 7 -22 15 -29 12 -10 15 -44 15 -189 0 -174 -1 -176 -18 -146 -105 174 -112 188 -106 211 4 17 1 26 -10 30 -13 5 -16 23 -16 95 0 49 3 89 8 89 4 0 31 -10 59 -22z m-412 -8 c-3 -5 -13 -6 -21 -3 -12 4 -13 8 -3 14 15 9 32 2 24 -11z m521 -22 c-1 -27 -36 -35 -36 -8 0 10 8 21 18 23 9 3 18 5 18 6 1 0 1 -9 0 -21z m-685 -67 c-13 -24 -43 -18 -34 7 4 9 11 20 17 24 18 12 29 -8 17 -31z m1376 13 c5 -15 -14 -37 -26 -30 -18 11 -13 45 6 42 9 -2 18 -7 20 -12z m-522 -33 c-7 -13 26 -30 44 -23 8 3 11 0 7 -7 -4 -6 -14 -11 -22 -11 -8 0 -14 -5 -14 -11 0 -18 -23 -4 -26 17 -4 21 2 44 11 44 4 0 4 -4 0 -9z m-620 -130 l210 -118 3 -98 c1 -54 -2 -103 -7 -108 -15 -15 -421 220 -421 243 0 10 -5 20 -11 22 -8 3 -15 123 -10 171 2 17 36 1 236 -112z m1113 33 c2 -63 -1 -84 -13 -94 -8 -7 -15 -18 -15 -26 0 -7 -73 -54 -162 -105 -90 -51 -180 -103 -201 -116 -21 -13 -43 -23 -48 -21 -6 2 -11 48 -11 107 l-1 104 184 103 c101 57 195 110 209 119 46 28 55 18 58 -71z m-1376 -3 c-2 -54 -8 -84 -18 -92 -8 -6 -14 -19 -14 -29 0 -10 -12 -23 -28 -29 -15 -6 -48 -25 -72 -41 -24 -16 -46 -28 -47 -26 -2 2 23 45 55 97 33 52 72 118 88 146 16 29 31 53 34 53 3 0 4 -36 2 -79z m532 34 c-4 -8 -8 -15 -10 -15 -2 0 -4 7 -4 15 0 8 4 15 10 15 5 0 7 -7 4 -15z m-510 -154 c3 -5 -3 -11 -13 -14 -14 -3 -18 -1 -14 9 6 16 19 18 27 5z m1380 0 c3 -5 -1 -11 -9 -15 -15 -6 -29 7 -18 18 9 9 21 8 27 -3z m-1375 -42 c8 5 69 -25 164 -80 84 -49 176 -101 204 -116 34 -18 53 -35 53 -46 0 -10 11 -22 24 -27 16 -6 40 -38 71 -97 26 -48 64 -118 85 -155 21 -38 37 -68 35 -68 -2 0 -101 58 -222 128 -120 70 -307 179 -415 242 -109 62 -198 119 -198 126 0 20 152 103 171 94 8 -5 21 -5 28 -1z m1374 -1 c15 12 167 -73 167 -93 0 -7 -136 -92 -302 -188 -167 -96 -352 -204 -413 -240 -60 -36 -111 -64 -113 -62 -1 1 35 71 80 155 51 94 90 155 101 158 10 3 22 14 27 26 5 13 75 59 189 125 99 57 188 109 198 116 12 9 23 10 36 3 12 -6 22 -6 30 0z m-790 -63 c26 -15 47 -34 47 -42 0 -9 7 -21 15 -27 13 -9 15 -43 13 -226 l-3 -215 -54 105 c-29 58 -65 125 -79 149 -16 27 -25 57 -24 76 2 19 -4 37 -13 45 -11 9 -15 35 -15 107 l0 95 33 -20 c17 -11 53 -32 80 -47z m271 -140 c-12 -8 -15 -20 -11 -37 5 -20 -4 -46 -38 -106 -51 -94 -125 -239 -125 -247 0 -4 5 -3 10 0 15 9 12 -17 -5 -39 -16 -21 -37 -13 -28 11 5 12 3 14 -7 8 -8 -5 -11 -3 -9 4 3 7 8 12 13 11 21 -4 26 38 26 238 0 199 1 213 20 232 11 11 20 26 20 33 0 6 33 30 73 52 l72 40 3 -93 c2 -79 0 -96 -14 -107z m-1082 120 c-5 -29 -13 -37 -29 -27 -14 9 2 52 20 52 10 0 13 -8 9 -25z m1838 -11 c0 -18 -13 -24 -29 -15 -8 5 -11 17 -6 30 5 18 9 20 21 10 8 -6 14 -17 14 -25z m-1143 -134 c2 -17 -1 -19 -19 -9 -17 9 -18 13 -7 20 21 13 25 11 26 -11z m433 6 c0 -8 -4 -18 -10 -21 -5 -3 -10 3 -10 14 0 12 5 21 10 21 6 0 10 -6 10 -14z"/> <path d="M3152 2158 c-7 -7 -12 -21 -12 -33 0 -44 44 -59 75 -25 17 18 17 21 1 45 -18 27 -45 32 -64 13z m38 -33 c0 -8 -8 -15 -17 -14 -11 0 -13 3 -5 6 6 2 10 9 6 14 -3 5 0 9 5 9 6 0 11 -7 11 -15z"/> <path d="M2628 2040 c-20 -15 -21 -21 -10 -44 22 -49 91 -25 78 28 -8 31 -40 39 -68 16z m39 -26 c-3 -3 -12 -4 -19 -1 -8 3 -5 6 6 6 11 1 17 -2 13 -5z m0 -20 c-3 -3 -12 -4 -19 -1 -8 3 -5 6 6 6 11 1 17 -2 13 -5z"/> <path d="M2630 1751 l0 -189 25 -16 c13 -9 26 -16 28 -16 2 0 3 92 3 205 l-1 205 -27 0 -28 0 0 -189z"/> <path d="M3483 1690 c-15 -23 -8 -47 18 -61 41 -22 80 36 47 69 -18 18 -52 14 -65 -8z m57 -25 c0 -12 -19 -12 -23 0 -4 9 -1 12 9 8 7 -3 14 -7 14 -8z"/> </g> </svg>